<svg width="234" height="234" viewBox="0 0 234 234" fill="none" xmlns="http://www.w3.org/2000/svg">
<circle cx="117" cy="117" r="117" fill="white"/>
<path d="M75.9091 141H58V94.4545H75.7273C80.5152 94.4545 84.6515 95.3864 88.1364 97.25C91.6364 99.0985 94.3333 101.765 96.2273 105.25C98.1364 108.72 99.0909 112.879 99.0909 117.727C99.0909 122.576 98.1439 126.742 96.25 130.227C94.3561 133.697 91.6742 136.364 88.2045 138.227C84.7348 140.076 80.6364 141 75.9091 141ZM70.6364 130.273H75.4545C77.7576 130.273 79.7197 129.902 81.3409 129.159C82.9773 128.417 84.2197 127.136 85.0682 125.318C85.9318 123.5 86.3636 120.97 86.3636 117.727C86.3636 114.485 85.9242 111.955 85.0455 110.136C84.1818 108.318 82.9091 107.038 81.2273 106.295C79.5606 105.553 77.5152 105.182 75.0909 105.182H70.6364V130.273ZM121.938 141.636C118.15 141.636 114.907 140.886 112.21 139.386C109.513 137.871 107.445 135.765 106.006 133.068C104.566 130.356 103.847 127.212 103.847 123.636C103.847 120.061 104.566 116.924 106.006 114.227C107.445 111.515 109.513 109.409 112.21 107.909C114.907 106.394 118.15 105.636 121.938 105.636C125.725 105.636 128.968 106.394 131.665 107.909C134.362 109.409 136.43 111.515 137.869 114.227C139.309 116.924 140.028 120.061 140.028 123.636C140.028 127.212 139.309 130.356 137.869 133.068C136.43 135.765 134.362 137.871 131.665 139.386C128.968 140.886 125.725 141.636 121.938 141.636ZM122.028 132.364C123.089 132.364 124.006 132.008 124.778 131.295C125.551 130.583 126.15 129.568 126.574 128.25C126.998 126.932 127.21 125.364 127.21 123.545C127.21 121.712 126.998 120.144 126.574 118.841C126.15 117.523 125.551 116.508 124.778 115.795C124.006 115.083 123.089 114.727 122.028 114.727C120.907 114.727 119.945 115.083 119.142 115.795C118.339 116.508 117.725 117.523 117.301 118.841C116.877 120.144 116.665 121.712 116.665 123.545C116.665 125.364 116.877 126.932 117.301 128.25C117.725 129.568 118.339 130.583 119.142 131.295C119.945 132.008 120.907 132.364 122.028 132.364ZM165.938 106.091V115.182H142.938V106.091H165.938ZM147.392 97.7273H159.938V129.773C159.938 130.258 160.021 130.667 160.188 131C160.354 131.318 160.612 131.561 160.96 131.727C161.309 131.879 161.756 131.955 162.301 131.955C162.68 131.955 163.119 131.909 163.619 131.818C164.134 131.727 164.513 131.652 164.756 131.591L166.574 140.409C166.013 140.576 165.21 140.78 164.165 141.023C163.134 141.265 161.907 141.424 160.483 141.5C157.604 141.652 155.188 141.356 153.233 140.614C151.278 139.856 149.809 138.667 148.824 137.045C147.839 135.424 147.362 133.394 147.392 130.955V97.7273Z" fill="#1A1A1A"/>
<path d="M177.875 141.727C176.117 141.727 174.61 141.114 173.352 139.886C172.11 138.644 171.496 137.136 171.511 135.364C171.496 133.636 172.11 132.159 173.352 130.932C174.61 129.705 176.117 129.091 177.875 129.091C179.542 129.091 181.011 129.705 182.284 130.932C183.572 132.159 184.223 133.636 184.239 135.364C184.223 136.545 183.913 137.621 183.307 138.591C182.716 139.545 181.943 140.311 180.989 140.886C180.034 141.447 178.996 141.727 177.875 141.727Z" fill="black"/>
</svg>
