<?xml version="1.0" encoding="UTF-8"?>
<svg version="1.1" xmlns="http://www.w3.org/2000/svg" width="512" height="512">
<path d="M0 0 C1.04558075 0.51284042 2.0911615 1.02568085 3.16842651 1.55406189 C6.19006464 3.04158659 9.20526604 4.54088218 12.21763611 6.04701996 C14.37213412 7.12352773 16.52824686 8.19674723 18.68469238 9.26934814 C30.59719655 15.19636814 42.49126736 21.15997611 54.3828125 27.12890625 C60.54565637 30.22231212 66.70923748 33.31423224 72.87453842 36.40273857 C75.28254929 37.60988373 77.68930347 38.81950516 80.09597778 40.02931213 C88.43355269 44.21173969 96.80941769 48.29980287 105.23388672 52.30444336 C117.79332567 58.28039171 130.22932159 64.49504505 142.66007996 70.73330879 C145.83272183 72.32474856 149.00675215 73.91341443 152.18066406 75.50231934 C160.8847806 79.86031102 169.58685157 84.22238085 178.28887939 88.58454132 C186.28615974 92.59337076 194.28391155 96.60125282 202.28330612 100.60586214 C205.41480676 102.17365685 208.54589268 103.7422665 211.67590332 105.31303406 C223.30775202 111.1492636 234.94721105 116.95615195 246.703125 122.5390625 C259.38040924 128.56016995 271.92445587 134.84322388 284.46779633 141.13716698 C287.75254924 142.78465695 291.03868664 144.4293808 294.32470703 146.07434082 C303.33844324 150.58714584 312.35013551 155.10402621 321.36178589 159.62099457 C329.64272179 163.77164769 337.92412708 167.92135772 346.2071743 172.06779623 C349.45045692 173.69148347 352.69332393 175.31598799 355.93511963 176.94264221 C369.20779741 183.60244398 382.48845463 190.22852075 395.9468689 196.50756073 C410.98090548 203.58690243 422.01174898 213.33189592 428.2578125 229.06640625 C432.20595547 241.97899713 432.23231808 257.83734015 426.2578125 270.06640625 C425.8453125 270.92105469 425.4328125 271.77570313 425.0078125 272.65625 C419.79954592 282.25899151 412.49402781 289.14653008 403.01904297 294.33032227 C401.9734512 294.90957757 401.9734512 294.90957757 400.90673637 295.50053501 C393.69769401 299.44929273 386.32550708 303.04555476 378.91579819 306.59909248 C374.44647185 308.74450412 369.98736365 310.91095222 365.52832031 313.07763672 C364.55976797 313.54816876 363.59121563 314.01870081 362.59331322 314.5034914 C350.53797518 320.37283048 338.54968773 326.37686912 326.56145763 332.38169146 C324.68510819 333.3215105 322.80861144 334.26103482 320.9320755 335.20048141 C311.99748605 339.67362766 303.06495207 344.15087052 294.1328125 348.62890625 C285.74351235 352.83472869 277.35382866 357.03977915 268.96218693 361.24092811 C264.80629952 363.32167933 260.65199224 365.40556193 256.49801636 367.49012756 C246.29637777 372.60243378 236.07688827 377.66316975 225.77001953 382.56030273 C214.24197011 388.03772228 202.82383519 393.72514262 191.41668701 399.4493866 C187.77179476 401.27836405 184.12558348 403.10468801 180.47900391 404.93029785 C172.73738974 408.80657342 164.99749759 412.68628071 157.2578125 416.56640625 C148.8914896 420.76068324 140.52483027 424.95428208 132.15618706 429.14392805 C127.98789416 431.23089421 123.8211827 433.32099483 119.65478516 435.41174316 C108.3156464 441.09394602 96.94168963 446.68435677 85.48664474 452.12922001 C76.92494088 456.20555385 68.44195288 460.42886059 59.9761734 464.70020866 C57.35989048 466.01971234 54.74179716 467.33556366 52.12322998 468.65052795 C44.69901737 472.37912585 37.27674606 476.11155216 29.85839844 479.85180664 C25.26980946 482.16500985 20.67825481 484.47223274 16.08480072 486.77575874 C14.35669834 487.64380088 12.62970277 488.51405051 10.90390778 489.38667107 C-6.96854603 498.42209863 -23.40482908 505.89314461 -43.76953125 500.09765625 C-58.22564691 495.08265686 -68.57384774 486.64049643 -75.7421875 473.06640625 C-82.24655312 458.94717356 -83.1785139 443.53147316 -77.84350586 428.8059082 C-76.8448392 426.21079882 -75.79785084 423.63888201 -74.7421875 421.06640625 C-74.03304199 419.31529541 -74.03304199 419.31529541 -73.30957031 417.52880859 C-70.41583047 410.39095099 -67.47397895 403.27371648 -64.51171875 396.1640625 C-61.19687711 388.20275303 -57.96850303 380.20928596 -54.77859497 372.19720459 C-53.9278625 370.06182542 -53.07455349 367.92749351 -52.22045898 365.79345703 C-49.28397097 358.45329286 -46.36209997 351.10774362 -43.46409607 343.75228882 C-41.95635338 339.93334368 -40.43769961 336.11879101 -38.91714478 332.30493164 C-38.18484838 330.46110282 -37.45716161 328.61543548 -36.73446655 326.76782227 C-29.60293528 308.54624822 -21.25295017 293.66846655 -2.7421875 285.06640625 C4.64649511 282.42101342 12.05724325 281.19461205 19.81665039 280.19702148 C21.03260391 280.03398529 22.24855743 279.8709491 23.50135803 279.70297241 C26.12539846 279.35230493 28.74962156 279.00457906 31.37471199 278.66201591 C35.53351598 278.11925685 39.690706 277.56476222 43.84776306 277.00880432 C50.42680683 276.13030984 57.00683269 275.25943801 63.58733314 274.39192873 C75.3659484 272.83906361 87.14327031 271.27648112 98.91956705 269.70613247 C103.04445381 269.1564368 107.16989035 268.6111388 111.29584324 268.06950557 C114.47374698 267.65144933 117.65099435 267.22845118 120.82836914 266.80639648 C121.95849426 266.65933762 123.08861938 266.51227875 124.25299072 266.36076355 C136.84084314 265.26002467 136.84084314 265.26002467 147.2578125 259.06640625 C150.53145521 254.2123843 151.01331285 249.75307777 150.2578125 244.06640625 C148.68059996 239.88679303 146.79647008 236.81869548 143.2578125 234.06640625 C137.04135514 231.88610834 130.69965273 231.25410893 124.17895508 230.51000977 C122.37754059 230.29734467 122.37754059 230.29734467 120.53973389 230.0803833 C117.93841356 229.77396658 115.33694827 229.46961544 112.73499489 229.16870308 C108.60953428 228.69134644 104.48520561 228.20466678 100.36100769 227.71653748 C90.11471718 226.50523693 79.86708887 225.3053955 69.61901855 224.10925293 C61.65573901 223.17969919 53.6929082 222.24661371 45.73130149 221.30282539 C42.30875218 220.89743746 38.88589925 220.49516645 35.4621067 220.10040474 C31.63508665 219.65805399 27.8093067 219.20610473 23.98364258 218.75219727 C22.86894089 218.62586411 21.7542392 218.49953094 20.60575867 218.36936951 C4.06636553 216.37732584 -11.45521057 212.11753588 -22.7421875 199.06640625 C-27.66627583 192.1464512 -31.30082463 185.0862326 -34.3671875 177.19140625 C-35.03210205 175.52174805 -35.03210205 175.52174805 -35.71044922 173.81835938 C-36.76553087 171.16830699 -37.81269804 168.51527173 -38.85546875 165.86035156 C-41.0630312 160.24335142 -43.29410654 154.63573142 -45.5234375 149.02734375 C-49.59507287 138.77907381 -53.65258111 128.52527511 -57.70507812 118.26942444 C-60.31279787 111.67269672 -62.92849782 105.0792336 -65.55422974 98.48965454 C-67.12546109 94.54617886 -68.69369525 90.60151465 -70.26165771 86.65673828 C-70.98990362 84.82689632 -71.71956437 82.99761672 -72.45074463 81.16894531 C-82.30814056 56.51026734 -82.30814056 56.51026734 -82.1171875 45.06640625 C-82.10848633 44.19209961 -82.09978516 43.31779297 -82.09082031 42.41699219 C-81.94996013 36.23069012 -81.29813801 30.76220976 -78.7421875 25.06640625 C-78.46375 24.38964844 -78.1853125 23.71289062 -77.8984375 23.015625 C-71.86306553 9.6181398 -61.13002401 0.56825687 -47.7421875 -4.93359375 C-30.9499423 -10.78777098 -15.54581007 -7.79493996 0 0 Z " fill="#000000" transform="translate(81.7421875,8.93359375)"/>
</svg>
